<?xml version="1.0" encoding="UTF-8" standalone="no"?>
<!-- Created with Inkscape (http://www.inkscape.org/) -->

<svg
   width="210mm"
   height="297mm"
   viewBox="0 0 210 297"
   version="1.1"
   id="svg5"
   xml:space="preserve"
   inkscape:export-filename="bitmap.svg"
   inkscape:export-xdpi="96"
   inkscape:export-ydpi="96"
   inkscape:version="1.2.1 (9c6d41e410, 2022-07-14)"
   sodipodi:docname="favicon.inkscape.svg"
   xmlns:inkscape="http://www.inkscape.org/namespaces/inkscape"
   xmlns:sodipodi="http://sodipodi.sourceforge.net/DTD/sodipodi-0.dtd"
   xmlns="http://www.w3.org/2000/svg"
   xmlns:svg="http://www.w3.org/2000/svg"
   xmlns:rdf="http://www.w3.org/1999/02/22-rdf-syntax-ns#"
   xmlns:cc="http://creativecommons.org/ns#"
   xmlns:dc="http://purl.org/dc/elements/1.1/"><title
     id="title14417">Token2go Favicon</title><sodipodi:namedview
     id="namedview7"
     pagecolor="#ffffff"
     bordercolor="#000000"
     borderopacity="0.25"
     inkscape:showpageshadow="2"
     inkscape:pageopacity="0.0"
     inkscape:pagecheckerboard="0"
     inkscape:deskcolor="#d1d1d1"
     inkscape:document-units="mm"
     showgrid="false"
     inkscape:zoom="2.0888418"
     inkscape:cx="467.0052"
     inkscape:cy="312.13469"
     inkscape:window-width="1920"
     inkscape:window-height="1009"
     inkscape:window-x="1912"
     inkscape:window-y="-8"
     inkscape:window-maximized="1"
     inkscape:current-layer="layer2" /><defs
     id="defs2" /><g
     inkscape:groupmode="layer"
     id="layer2"
     inkscape:label="Coin"
     style="display:inline"><circle
       style="fill:#ffd700;fill-opacity:1;stroke:#daa520;stroke-width:7;stroke-dasharray:none;stroke-opacity:1"
       id="path348"
       cx="123.36388"
       cy="82.356064"
       r="30.754179"
       inkscape:export-filename="iconnormal.svg"
       inkscape:export-xdpi="96"
       inkscape:export-ydpi="96" /></g><g
     inkscape:groupmode="layer"
     id="layer3"
     inkscape:label="Key"><g
       id="layer1"
       inkscape:label="Layer 1"
       transform="matrix(0.11244086,0,0,0.11244086,50.435437,49.773889)"><path
         id="path6625"
         style="color:#000000;fill:#aaa9ad;fill-opacity:1;stroke-width:0.926715"
         d="m 493.93923,126.15852 c -43.23125,43.23125 -43.24979,113.4299 -0.0278,156.65188 28.65402,28.65402 69.13292,38.30112 105.75669,28.97837 l 20.66575,20.65648 36.76277,4.50383 4.55017,36.81838 36.77205,4.50383 4.53163,36.79058 36.80908,4.55017 4.5039,36.77205 65.36121,-5.47688 5.2452,-0.42629 0.9916,-11.31519 5.2081,-59.09661 -20.4526,-20.4526 -20.4155,-20.41552 -20.4341,-20.43407 -20.41551,-20.40626 -20.4341,-20.43406 -20.43404,-20.43406 -20.43406,-20.43406 c 11.63027,-37.93971 2.46506,-80.85588 -27.5327,-110.85364 -43.22198,-43.221974 -113.35576,-43.268304 -156.57774,-0.0463 z m 22.43576,22.5377 c 19.84097,-19.84096 48.25405,-23.66829 63.42437,-8.49797 15.17032,15.17032 11.36152,43.60193 -8.47018,63.4429 -19.84096,19.84096 -48.25404,23.62196 -63.42436,8.45164 -15.17032,-15.17032 -11.37079,-43.56487 8.47017,-63.39657 z"
         inkscape:export-ydpi="90"
         inkscape:export-filename="/home/barret/Desktop/My Documents/Art/icons/key.png"
         inkscape:export-xdpi="90"
         inkscape:label="path6625" /></g></g><metadata
     id="metadata14415"><rdf:RDF><cc:Work
         rdf:about=""><dc:title>Token2go Favicon</dc:title></cc:Work></rdf:RDF></metadata></svg>
