<?xml version="1.0" encoding="UTF-8"?>
<svg width="210mm" height="297mm" version="1.1" viewBox="0 0 210 297" xml:space="preserve" xmlns="http://www.w3.org/2000/svg" xmlns:cc="http://creativecommons.org/ns#" xmlns:dc="http://purl.org/dc/elements/1.1/" xmlns:rdf="http://www.w3.org/1999/02/22-rdf-syntax-ns#"><title>Token2go Favicon</title><g><circle cx="123.36" cy="82.356" r="30.754" fill="#ffd700" stroke="#daa520" stroke-width="7"/></g><g transform="matrix(.11244 0 0 .11244 50.435 49.774)"><path d="m493.94 126.16c-43.231 43.231-43.25 113.43-0.0278 156.65 28.654 28.654 69.133 38.301 105.76 28.978l20.666 20.656 36.763 4.5038 4.5502 36.818 36.772 4.5038 4.5316 36.791 36.809 4.5502 4.5039 36.772 65.361-5.4769 5.2452-0.42629 0.9916-11.315 5.2081-59.097-61.302-61.302-20.416-20.406-61.302-61.302c11.63-37.94 2.4651-80.856-27.533-110.85-43.222-43.222-113.36-43.268-156.58-0.0463zm22.436 22.538c19.841-19.841 48.254-23.668 63.424-8.498s11.362 43.602-8.4702 63.443c-19.841 19.841-48.254 23.622-63.424 8.4516s-11.371-43.565 8.4702-63.397z" color="#000000" fill="#aaa9ad" stroke-width=".92672"/></g><metadata><rdf:RDF><cc:Work rdf:about=""><dc:title>Token2go Favicon</dc:title></cc:Work></rdf:RDF></metadata></svg>
